<?xml version="1.0" encoding="utf-8"?>
<!-- Generator: Adobe Illustrator 16.0.0, SVG Export Plug-In . SVG Version: 6.00 Build 0)  -->
<!DOCTYPE svg PUBLIC "-//W3C//DTD SVG 1.1//EN" "http://www.w3.org/Graphics/SVG/1.1/DTD/svg11.dtd">
<svg version="1.1" id="Layer_1" xmlns="http://www.w3.org/2000/svg" xmlns:xlink="http://www.w3.org/1999/xlink" x="0px" y="0px"
	 viewBox="0 0 123.351 138.746" enable-background="new 0 0 123.351 138.746"
	 xml:space="preserve">
	 <style type="text/css">
		text {
			font-family: 'Cabin', sans-serif;
		}
	</style>
<path fill="none" stroke="#7FBB42" stroke-width="5" stroke-miterlimit="10" d="M91.653,28.342
	c-6.043-2.128-10.34-5.353-15.62-8.807c-6.912-4.521-14.356-15.192-14.357-15.19c-0.001-0.001-0.006-0.008-0.006-0.008
	S54.23,15.014,47.318,19.536c-5.28,3.454-9.577,6.679-15.62,8.807C16.22,33.792,2.89,32.923,2.751,32.907
	c0,0,4.938,57.965,8.521,66.436c4.125,9.75,26.202,24.896,33.206,29.5c0,0,11.423,7.403,17.19,7.403s17.202-7.403,17.202-7.403
	c7.004-4.604,29.081-19.75,33.206-29.5c3.584-8.471,8.521-66.436,8.521-66.436C120.46,32.923,107.13,33.792,91.653,28.342z"/>
<path fill="#FFFFFF" d="M90.878,30.373c-5.84-2.056-9.991-5.171-15.093-8.509c-6.68-4.37-13.873-14.68-13.874-14.679
	c-0.001-0.001-0.005-0.007-0.005-0.007s-7.189,10.316-13.868,14.686c-5.103,3.338-9.254,6.453-15.094,8.509
	C17.991,35.639,5.109,34.8,4.975,34.784c0,0,4.771,56.009,8.234,64.195c3.986,9.421,25.319,24.057,32.086,28.505
	c0,0,11.038,7.153,16.611,7.153s16.622-7.153,16.622-7.153c6.768-4.449,28.1-19.084,32.085-28.505
	c3.464-8.186,8.235-64.195,8.235-64.195C118.714,34.8,105.834,35.639,90.878,30.373z"/>
<path fill="#F15922" d="M86.23,36.848c-5.063-1.782-8.662-4.484-13.086-7.378c-5.791-3.789-12.027-12.729-12.029-12.727
	c0-0.002-0.004-0.006-0.004-0.006s-6.232,8.943-12.023,12.732c-4.424,2.894-8.022,5.596-13.086,7.378
	c-12.967,4.565-24.135,3.837-24.25,3.824c0,0,4.137,48.559,7.139,55.658c3.456,8.168,21.951,20.854,27.819,24.713
	c0,0,9.569,6.202,14.401,6.202s14.412-6.202,14.412-6.202c5.867-3.858,24.362-16.545,27.818-24.713
	c3.002-7.1,7.139-55.658,7.139-55.658C110.365,40.685,99.197,41.414,86.23,36.848z"/>
<path fill="#D54E27" d="M86.23,36.848c-5.063-1.782-8.662-4.484-13.086-7.378c-5.787-3.785-12.016-12.711-12.028-12.725v110.5
	c4.833-0.004,14.407-6.202,14.407-6.202c5.867-3.858,24.362-16.545,27.818-24.713c3.002-7.1,7.139-55.658,7.139-55.658
	C110.365,40.685,99.197,41.414,86.23,36.848z"/>
<text transform="matrix(0.7541 0.262 -0.057 0.9984 24.0801 94.1587)" fill="#FFFFFF" font-family="'Cabin-Regular'" font-size="64.9892">Z</text>
<text transform="matrix(0.7087 -0.3088 -0.0145 0.9999 64.3906 106.0864)" fill="#FFFFFF" font-family="'Cabin-Regular'" font-size="67.8643">H</text>
</svg>
